<mxfile host="65bd71144e">
    <diagram id="VvRozGWxQbR5gVKz2xPQ" name="1.整体架构图">
        <mxGraphModel dx="907" dy="431" grid="0" gridSize="10" guides="1" tooltips="1" connect="1" arrows="1" fold="1" page="1" pageScale="1" pageWidth="2336" pageHeight="1654" background="#ffffff" math="0" shadow="0">
            <root>
                <mxCell id="0"/>
                <mxCell id="1" parent="0"/>
                <mxCell id="W5GlPM54YrS_CDvLuqvn-21" value="" style="shape=curlyBracket;whiteSpace=wrap;html=1;rounded=1;labelPosition=left;verticalLabelPosition=middle;align=right;verticalAlign=middle;" parent="1" vertex="1">
                    <mxGeometry x="1061" y="363" width="30" height="185" as="geometry"/>
                </mxCell>
                <mxCell id="3" value="依赖服务1" style="rounded=1;whiteSpace=wrap;html=1;flipV=0;flipH=1;" parent="1" vertex="1">
                    <mxGeometry x="1097" y="349" width="100" height="40" as="geometry"/>
                </mxCell>
                <mxCell id="4" value="依赖服务2" style="rounded=1;whiteSpace=wrap;html=1;flipV=0;flipH=1;" parent="1" vertex="1">
                    <mxGeometry x="1097" y="436" width="100" height="40" as="geometry"/>
                </mxCell>
                <mxCell id="6" value="……" style="rounded=1;whiteSpace=wrap;html=1;flipV=0;flipH=1;" parent="1" vertex="1">
                    <mxGeometry x="1097" y="523" width="100" height="40" as="geometry"/>
                </mxCell>
                <mxCell id="36" style="edgeStyle=none;html=1;entryX=0.928;entryY=1.025;entryDx=0;entryDy=0;strokeColor=#0000FF;fontSize=18;entryPerimeter=0;exitX=0.1;exitY=0.5;exitDx=0;exitDy=0;exitPerimeter=0;" parent="1" edge="1">
                    <mxGeometry relative="1" as="geometry">
                        <mxPoint x="1058.9999999999995" y="735.5" as="sourcePoint"/>
                        <mxPoint x="896.3600000000001" y="605.4999999999998" as="targetPoint"/>
                    </mxGeometry>
                </mxCell>
                <mxCell id="7" value="" style="shape=curlyBracket;whiteSpace=wrap;html=1;rounded=1;labelPosition=left;verticalLabelPosition=middle;align=right;verticalAlign=middle;" parent="1" vertex="1">
                    <mxGeometry x="1056" y="622" width="30" height="278" as="geometry"/>
                </mxCell>
                <mxCell id="8" value="粉条引擎" style="rounded=1;whiteSpace=wrap;html=1;flipV=1;flipH=1;" parent="1" vertex="1">
                    <mxGeometry x="1097" y="600" width="100" height="40" as="geometry"/>
                </mxCell>
                <mxCell id="25" style="edgeStyle=none;html=1;exitX=0;exitY=0.5;exitDx=0;exitDy=0;strokeColor=#0000FF;" parent="1" source="12" edge="1">
                    <mxGeometry relative="1" as="geometry">
                        <mxPoint x="1198" y="620" as="targetPoint"/>
                    </mxGeometry>
                </mxCell>
                <mxCell id="12" value="索引服务" style="rounded=1;whiteSpace=wrap;html=1;flipV=1;flipH=1;fillColor=#ffe6cc;strokeColor=#d79b00;" parent="1" vertex="1">
                    <mxGeometry x="1287" y="605" width="80" height="30" as="geometry"/>
                </mxCell>
                <mxCell id="15" style="edgeStyle=none;html=1;exitX=0;exitY=0.5;exitDx=0;exitDy=0;entryX=1;entryY=0.5;entryDx=0;entryDy=0;strokeColor=#0000FF;" parent="1" source="14" target="12" edge="1">
                    <mxGeometry relative="1" as="geometry"/>
                </mxCell>
                <mxCell id="14" value="图灵服务" style="rounded=1;whiteSpace=wrap;html=1;flipV=1;flipH=1;fillColor=#ffe6cc;strokeColor=#d79b00;" parent="1" vertex="1">
                    <mxGeometry x="1439" y="605" width="80" height="30" as="geometry"/>
                </mxCell>
                <mxCell id="33" style="edgeStyle=none;html=1;exitX=1;exitY=0.25;exitDx=0;exitDy=0;strokeColor=#FF3333;fontSize=18;" parent="1" source="28" edge="1">
                    <mxGeometry relative="1" as="geometry">
                        <mxPoint x="1063" y="448" as="targetPoint"/>
                    </mxGeometry>
                </mxCell>
                <mxCell id="35" style="edgeStyle=none;html=1;exitX=1;exitY=0.75;exitDx=0;exitDy=0;strokeColor=#FF3333;fontSize=18;" parent="1" edge="1">
                    <mxGeometry relative="1" as="geometry">
                        <mxPoint x="905" y="595" as="sourcePoint"/>
                        <mxPoint x="1067" y="721" as="targetPoint"/>
                    </mxGeometry>
                </mxCell>
                <mxCell id="40" style="edgeStyle=none;html=1;exitX=0;exitY=0.5;exitDx=0;exitDy=0;strokeColor=#0000FF;fontSize=22;fontColor=#0000FF;entryX=1.002;entryY=0.803;entryDx=0;entryDy=0;entryPerimeter=0;" parent="1" source="28" target="W5GlPM54YrS_CDvLuqvn-2" edge="1">
                    <mxGeometry relative="1" as="geometry">
                        <mxPoint x="641" y="463" as="targetPoint"/>
                    </mxGeometry>
                </mxCell>
                <mxCell id="28" value="&lt;font style=&quot;font-size: 18px;&quot;&gt;广告交易引擎&lt;/font&gt;" style="rounded=1;whiteSpace=wrap;html=1;fillColor=#ffe6cc;strokeColor=#d79b00;" parent="1" vertex="1">
                    <mxGeometry x="785" y="548" width="120" height="60" as="geometry"/>
                </mxCell>
                <mxCell id="38" value="&lt;font color=&quot;#ff0000&quot;&gt;红色线条&lt;/font&gt;：请求流&lt;br style=&quot;font-size: 22px;&quot;&gt;&lt;font color=&quot;#0000ff&quot;&gt;蓝色线条&lt;/font&gt;：广告流&lt;br style=&quot;font-size: 22px;&quot;&gt;黑色线条：数据流&lt;br&gt;&lt;font color=&quot;#00ff00&quot;&gt;绿色线条&lt;/font&gt;：监测上报" style="text;strokeColor=none;align=left;fillColor=none;html=1;verticalAlign=top;whiteSpace=wrap;rounded=0;fontSize=22;" parent="1" vertex="1">
                    <mxGeometry x="1283" y="349" width="285" height="127" as="geometry"/>
                </mxCell>
                <mxCell id="39" style="edgeStyle=none;html=1;entryX=1;entryY=0.5;entryDx=0;entryDy=0;exitX=0.067;exitY=0.524;exitDx=0;exitDy=0;exitPerimeter=0;" parent="1" source="W5GlPM54YrS_CDvLuqvn-21" target="28" edge="1">
                    <mxGeometry relative="1" as="geometry">
                        <mxPoint x="1057" y="456" as="sourcePoint"/>
                        <mxPoint x="921" y="456" as="targetPoint"/>
                    </mxGeometry>
                </mxCell>
                <mxCell id="41" style="edgeStyle=none;html=1;fontSize=18;entryX=0;entryY=0.25;entryDx=0;entryDy=0;fillColor=#f8cecc;strokeColor=#FF3333;exitX=1.027;exitY=0.751;exitDx=0;exitDy=0;exitPerimeter=0;" parent="1" source="W5GlPM54YrS_CDvLuqvn-2" target="28" edge="1">
                    <mxGeometry relative="1" as="geometry">
                        <mxPoint x="631" y="448" as="sourcePoint"/>
                        <mxPoint x="798" y="276" as="targetPoint"/>
                    </mxGeometry>
                </mxCell>
                <mxCell id="43" value="&lt;font color=&quot;#ff33ff&quot; style=&quot;font-size: 12px;&quot;&gt;信息流广告&lt;/font&gt;" style="text;strokeColor=none;align=center;fillColor=none;html=1;verticalAlign=middle;whiteSpace=wrap;rounded=0;fontSize=12;fontColor=#0000FF;" parent="1" vertex="1">
                    <mxGeometry x="605" y="402" width="137" height="30" as="geometry"/>
                </mxCell>
                <mxCell id="50" style="edgeStyle=none;html=1;exitX=0;exitY=1;exitDx=0;exitDy=0;strokeColor=#0000FF;fontSize=22;fontColor=#0000FF;entryX=0.994;entryY=0.398;entryDx=0;entryDy=0;entryPerimeter=0;" parent="1" source="28" target="47" edge="1">
                    <mxGeometry relative="1" as="geometry">
                        <mxPoint x="623.326" y="626.5600000000001" as="targetPoint"/>
                        <mxPoint x="801" y="721.72" as="sourcePoint"/>
                    </mxGeometry>
                </mxCell>
                <mxCell id="51" style="edgeStyle=none;html=1;fontSize=18;entryX=0;entryY=0.75;entryDx=0;entryDy=0;fillColor=#f8cecc;strokeColor=#FF3333;exitX=1.01;exitY=0.322;exitDx=0;exitDy=0;exitPerimeter=0;" parent="1" source="47" target="28" edge="1">
                    <mxGeometry relative="1" as="geometry">
                        <mxPoint x="627.4009999999998" y="612.0000000000001" as="sourcePoint"/>
                        <mxPoint x="801" y="706.72" as="targetPoint"/>
                    </mxGeometry>
                </mxCell>
                <mxCell id="56" style="edgeStyle=none;html=1;exitX=0.5;exitY=1;exitDx=0;exitDy=0;entryX=0.5;entryY=0;entryDx=0;entryDy=0;strokeColor=#0000FF;fontSize=22;fontColor=#FF33FF;" parent="1" edge="1">
                    <mxGeometry relative="1" as="geometry">
                        <mxPoint x="848" y="437" as="sourcePoint"/>
                        <mxPoint x="848" y="548" as="targetPoint"/>
                    </mxGeometry>
                </mxCell>
                <mxCell id="52" value="渲染服务" style="rounded=1;whiteSpace=wrap;html=1;flipV=1;flipH=1;fontSize=17;" parent="1" vertex="1">
                    <mxGeometry x="795" y="397" width="100" height="40" as="geometry"/>
                </mxCell>
                <mxCell id="53" value="" style="group" parent="1" vertex="1" connectable="0">
                    <mxGeometry x="460" y="583" width="163" height="280" as="geometry"/>
                </mxCell>
                <mxCell id="47" value="" style="verticalLabelPosition=bottom;verticalAlign=top;html=1;shadow=0;dashed=0;strokeWidth=1;shape=mxgraph.android.phone2;strokeColor=#c0c0c0;" parent="53" vertex="1">
                    <mxGeometry width="163" height="280" as="geometry"/>
                </mxCell>
                <mxCell id="48" value="&lt;font color=&quot;#ff0000&quot;&gt;微博系&lt;br&gt;其他APP&lt;/font&gt;" style="text;strokeColor=none;align=center;fillColor=none;html=1;verticalAlign=top;whiteSpace=wrap;rounded=0;fontSize=22;" parent="53" vertex="1">
                    <mxGeometry x="28" y="64" width="115.5" height="57" as="geometry"/>
                </mxCell>
                <mxCell id="49" value="&lt;font color=&quot;#ff0000&quot;&gt;SSP流量&lt;/font&gt;" style="text;strokeColor=none;align=center;fillColor=none;html=1;verticalAlign=top;whiteSpace=wrap;rounded=0;fontSize=22;" parent="53" vertex="1">
                    <mxGeometry x="23.75" y="151" width="115.5" height="57" as="geometry"/>
                </mxCell>
                <mxCell id="54" value="" style="group" parent="1" vertex="1" connectable="0">
                    <mxGeometry x="464" y="210" width="163" height="280" as="geometry"/>
                </mxCell>
                <mxCell id="W5GlPM54YrS_CDvLuqvn-2" value="" style="verticalLabelPosition=bottom;verticalAlign=top;html=1;shadow=0;dashed=0;strokeWidth=1;shape=mxgraph.android.phone2;strokeColor=#c0c0c0;" parent="54" vertex="1">
                    <mxGeometry width="163" height="280" as="geometry"/>
                </mxCell>
                <mxCell id="44" value="&lt;font color=&quot;#ff0000&quot;&gt;微博APP&lt;/font&gt;" style="text;strokeColor=none;align=center;fillColor=none;html=1;verticalAlign=top;whiteSpace=wrap;rounded=0;fontSize=22;" parent="54" vertex="1">
                    <mxGeometry x="30.5" y="112" width="102" height="40" as="geometry"/>
                </mxCell>
                <mxCell id="57" style="edgeStyle=none;html=1;fontSize=18;entryX=0.583;entryY=0.036;entryDx=0;entryDy=0;fillColor=#f8cecc;strokeColor=#FF3333;entryPerimeter=0;" parent="1" target="52" edge="1">
                    <mxGeometry relative="1" as="geometry">
                        <mxPoint x="837" y="546" as="sourcePoint"/>
                        <mxPoint x="795" y="603" as="targetPoint"/>
                    </mxGeometry>
                </mxCell>
                <mxCell id="59" style="edgeStyle=none;html=1;exitX=0.5;exitY=0;exitDx=0;exitDy=0;entryX=0.5;entryY=1;entryDx=0;entryDy=0;strokeColor=#0000FF;fontSize=22;fontColor=#FF33FF;" parent="1" source="58" target="28" edge="1">
                    <mxGeometry relative="1" as="geometry"/>
                </mxCell>
                <mxCell id="80" style="edgeStyle=none;html=1;exitX=0.5;exitY=1;exitDx=0;exitDy=0;entryX=0.5;entryY=0;entryDx=0;entryDy=0;strokeColor=#00FF00;fontSize=22;fontColor=#00FFFF;" parent="1" source="58" target="73" edge="1">
                    <mxGeometry relative="1" as="geometry"/>
                </mxCell>
                <mxCell id="58" value="darwin竞价服务" style="rounded=1;whiteSpace=wrap;html=1;flipV=1;flipH=1;fillColor=#ffe6cc;strokeColor=#d79b00;fontSize=16;" parent="1" vertex="1">
                    <mxGeometry x="783" y="804" width="124" height="40" as="geometry"/>
                </mxCell>
                <mxCell id="60" style="edgeStyle=none;html=1;fontSize=18;fillColor=#f8cecc;strokeColor=#FF3333;" parent="1" edge="1">
                    <mxGeometry relative="1" as="geometry">
                        <mxPoint x="833" y="609" as="sourcePoint"/>
                        <mxPoint x="833" y="802" as="targetPoint"/>
                    </mxGeometry>
                </mxCell>
                <mxCell id="62" value="&lt;font color=&quot;#00ffff&quot;&gt;1&lt;/font&gt;" style="text;strokeColor=none;align=center;fillColor=none;html=1;verticalAlign=middle;whiteSpace=wrap;rounded=0;fontSize=22;fontColor=#FF33FF;" parent="1" vertex="1">
                    <mxGeometry x="735" y="513" width="60" height="30" as="geometry"/>
                </mxCell>
                <mxCell id="63" value="&lt;font color=&quot;#00ffff&quot;&gt;1&lt;/font&gt;" style="text;strokeColor=none;align=center;fillColor=none;html=1;verticalAlign=middle;whiteSpace=wrap;rounded=0;fontSize=22;fontColor=#FF33FF;" parent="1" vertex="1">
                    <mxGeometry x="655" y="612" width="60" height="30" as="geometry"/>
                </mxCell>
                <mxCell id="64" value="&lt;font color=&quot;#00ffff&quot;&gt;2&lt;/font&gt;" style="text;strokeColor=none;align=center;fillColor=none;html=1;verticalAlign=middle;whiteSpace=wrap;rounded=0;fontSize=22;fontColor=#FF33FF;" parent="1" vertex="1">
                    <mxGeometry x="964" y="466" width="60" height="30" as="geometry"/>
                </mxCell>
                <mxCell id="67" value="&lt;font color=&quot;#00ffff&quot;&gt;3&lt;/font&gt;" style="text;strokeColor=none;align=center;fillColor=none;html=1;verticalAlign=middle;whiteSpace=wrap;rounded=0;fontSize=22;fontColor=#FF33FF;" parent="1" vertex="1">
                    <mxGeometry x="964" y="518" width="60" height="30" as="geometry"/>
                </mxCell>
                <mxCell id="68" value="&lt;font color=&quot;#00ffff&quot;&gt;4&lt;/font&gt;&lt;span style=&quot;color: rgba(0, 0, 0, 0); font-family: monospace; font-size: 0px; text-align: start;&quot;&gt;%3CmxGraphModel%3E%3Croot%3E%3CmxCell%20id%3D%220%22%2F%3E%3CmxCell%20id%3D%221%22%20parent%3D%220%22%2F%3E%3CmxCell%20id%3D%222%22%20value%3D%22%26lt%3Bfont%20color%3D%26quot%3B%2300ffff%26quot%3B%26gt%3B1%26lt%3B%2Ffont%26gt%3B%22%20style%3D%22text%3BstrokeColor%3Dnone%3Balign%3Dcenter%3BfillColor%3Dnone%3Bhtml%3D1%3BverticalAlign%3Dmiddle%3BwhiteSpace%3Dwrap%3Brounded%3D0%3BfontSize%3D22%3BfontColor%3D%23FF33FF%3B%22%20vertex%3D%221%22%20parent%3D%221%22%3E%3CmxGeometry%20x%3D%22641%22%20y%3D%22440.5%22%20width%3D%2260%22%20height%3D%2230%22%20as%3D%22geometry%22%2F%3E%3C%2FmxCell%3E%3C%2Froot%3E%3C%2FmxGraphModel%3E&lt;/span&gt;" style="text;strokeColor=none;align=center;fillColor=none;html=1;verticalAlign=middle;whiteSpace=wrap;rounded=0;fontSize=22;fontColor=#FF33FF;" parent="1" vertex="1">
                    <mxGeometry x="964" y="632" width="60" height="30" as="geometry"/>
                </mxCell>
                <mxCell id="70" value="&lt;font color=&quot;#00ffff&quot;&gt;5&lt;/font&gt;" style="text;strokeColor=none;align=center;fillColor=none;html=1;verticalAlign=middle;whiteSpace=wrap;rounded=0;fontSize=22;fontColor=#FF33FF;" parent="1" vertex="1">
                    <mxGeometry x="964" y="688" width="60" height="30" as="geometry"/>
                </mxCell>
                <mxCell id="81" style="edgeStyle=none;html=1;exitX=1;exitY=0.5;exitDx=0;exitDy=0;strokeColor=#00FF00;fontSize=22;fontColor=#00FFFF;entryX=0.1;entryY=0.5;entryDx=0;entryDy=0;entryPerimeter=0;" parent="1" source="73" target="82" edge="1">
                    <mxGeometry relative="1" as="geometry">
                        <mxPoint x="1380" y="1014" as="targetPoint"/>
                        <Array as="points">
                            <mxPoint x="1427" y="941"/>
                            <mxPoint x="1427" y="742"/>
                        </Array>
                    </mxGeometry>
                </mxCell>
                <mxCell id="73" value="Wax日志上报服务" style="rounded=1;whiteSpace=wrap;html=1;flipV=1;flipH=1;fillColor=#ffe6cc;strokeColor=#d79b00;fontSize=16;" parent="1" vertex="1">
                    <mxGeometry x="774.5" y="921" width="141" height="40" as="geometry"/>
                </mxCell>
                <mxCell id="79" style="edgeStyle=none;html=1;exitX=0.5;exitY=1;exitDx=0;exitDy=0;entryX=0;entryY=0.5;entryDx=0;entryDy=0;strokeColor=#00FF00;fontSize=22;fontColor=#00FFFF;" parent="1" source="74" target="73" edge="1">
                    <mxGeometry relative="1" as="geometry">
                        <Array as="points">
                            <mxPoint x="348" y="941"/>
                        </Array>
                    </mxGeometry>
                </mxCell>
                <mxCell id="74" value="后链路" style="rounded=1;whiteSpace=wrap;html=1;flipV=1;flipH=1;" parent="1" vertex="1">
                    <mxGeometry x="298" y="490" width="100" height="40" as="geometry"/>
                </mxCell>
                <mxCell id="77" value="" style="endArrow=classic;html=1;strokeColor=#00FF00;fontSize=22;fontColor=#00FFFF;exitX=0.013;exitY=0.398;exitDx=0;exitDy=0;exitPerimeter=0;" parent="1" source="47" edge="1">
                    <mxGeometry width="50" height="50" relative="1" as="geometry">
                        <mxPoint x="819" y="679" as="sourcePoint"/>
                        <mxPoint x="398" y="525" as="targetPoint"/>
                    </mxGeometry>
                </mxCell>
                <mxCell id="78" value="" style="endArrow=classic;html=1;strokeColor=#00FF00;fontSize=22;fontColor=#00FFFF;entryX=1;entryY=0.25;entryDx=0;entryDy=0;exitX=-0.003;exitY=0.605;exitDx=0;exitDy=0;exitPerimeter=0;" parent="1" source="W5GlPM54YrS_CDvLuqvn-2" target="74" edge="1">
                    <mxGeometry width="50" height="50" relative="1" as="geometry">
                        <mxPoint x="472.1189999999999" y="704.44" as="sourcePoint"/>
                        <mxPoint x="408" y="520" as="targetPoint"/>
                    </mxGeometry>
                </mxCell>
                <mxCell id="84" value="&lt;font style=&quot;font-size: 12px;&quot; color=&quot;#ff33ff&quot;&gt;监测上报&lt;/font&gt;" style="text;strokeColor=none;align=center;fillColor=none;html=1;verticalAlign=middle;whiteSpace=wrap;rounded=0;fontSize=12;fontColor=#0000FF;" parent="1" vertex="1">
                    <mxGeometry x="957" y="913" width="137" height="30" as="geometry"/>
                </mxCell>
                <mxCell id="85" value="&lt;font style=&quot;font-size: 12px;&quot; color=&quot;#ff33ff&quot;&gt;监测上报&lt;/font&gt;" style="text;strokeColor=none;align=center;fillColor=none;html=1;verticalAlign=middle;whiteSpace=wrap;rounded=0;fontSize=22;fontColor=#0000FF;" parent="1" vertex="1">
                    <mxGeometry x="362" y="500" width="137" height="30" as="geometry"/>
                </mxCell>
                <mxCell id="86" value="&lt;font style=&quot;font-size: 12px;&quot; color=&quot;#ff33ff&quot;&gt;监测上报&lt;/font&gt;" style="text;strokeColor=none;align=center;fillColor=none;html=1;verticalAlign=middle;whiteSpace=wrap;rounded=0;fontSize=12;fontColor=#0000FF;" parent="1" vertex="1">
                    <mxGeometry x="350" y="913" width="137" height="30" as="geometry"/>
                </mxCell>
                <mxCell id="87" value="" style="group" parent="1" vertex="1" connectable="0">
                    <mxGeometry x="621" y="164" width="606.5" height="180" as="geometry"/>
                </mxCell>
                <mxCell id="29" value="" style="group" parent="87" vertex="1" connectable="0">
                    <mxGeometry x="178.5" width="428" height="180" as="geometry"/>
                </mxCell>
                <mxCell id="2" value="开机投放引擎" style="rounded=1;whiteSpace=wrap;html=1;fillColor=#ffe6cc;strokeColor=#d79b00;" parent="29" vertex="1">
                    <mxGeometry width="100" height="40" as="geometry"/>
                </mxCell>
                <mxCell id="W5GlPM54YrS_CDvLuqvn-3" value="开机策略引擎" style="rounded=1;whiteSpace=wrap;html=1;fillColor=#ffe6cc;strokeColor=#d79b00;" parent="29" vertex="1">
                    <mxGeometry y="140" width="100" height="40" as="geometry"/>
                </mxCell>
                <mxCell id="W5GlPM54YrS_CDvLuqvn-11" style="edgeStyle=none;html=1;exitX=0.5;exitY=0;exitDx=0;exitDy=0;entryX=1;entryY=0.5;entryDx=0;entryDy=0;fillColor=#d5e8d4;strokeColor=#3333FF;" parent="29" source="W5GlPM54YrS_CDvLuqvn-4" target="2" edge="1">
                    <mxGeometry relative="1" as="geometry">
                        <mxPoint x="11.275113192471508" y="-9.328607732599494" as="targetPoint"/>
                    </mxGeometry>
                </mxCell>
                <mxCell id="W5GlPM54YrS_CDvLuqvn-12" style="edgeStyle=none;html=1;exitX=0.5;exitY=1;exitDx=0;exitDy=0;entryX=1;entryY=0.5;entryDx=0;entryDy=0;strokeColor=#0000FF;" parent="29" source="W5GlPM54YrS_CDvLuqvn-4" target="W5GlPM54YrS_CDvLuqvn-3" edge="1">
                    <mxGeometry relative="1" as="geometry"/>
                </mxCell>
                <mxCell id="W5GlPM54YrS_CDvLuqvn-4" value="开机消息中心" style="rounded=1;whiteSpace=wrap;html=1;" parent="29" vertex="1">
                    <mxGeometry x="328" y="70" width="100" height="40" as="geometry"/>
                </mxCell>
                <mxCell id="W5GlPM54YrS_CDvLuqvn-5" value="开机离线脚本" style="rounded=1;whiteSpace=wrap;html=1;fillColor=#ffe6cc;strokeColor=#d79b00;" parent="29" vertex="1">
                    <mxGeometry x="164" y="70" width="100" height="40" as="geometry"/>
                </mxCell>
                <mxCell id="W5GlPM54YrS_CDvLuqvn-8" style="edgeStyle=none;html=1;exitX=1;exitY=1;exitDx=0;exitDy=0;entryX=0;entryY=0;entryDx=0;entryDy=0;" parent="29" source="2" target="W5GlPM54YrS_CDvLuqvn-5" edge="1">
                    <mxGeometry relative="1" as="geometry"/>
                </mxCell>
                <mxCell id="W5GlPM54YrS_CDvLuqvn-9" style="edgeStyle=none;html=1;exitX=1;exitY=0;exitDx=0;exitDy=0;entryX=0;entryY=1;entryDx=0;entryDy=0;" parent="29" source="W5GlPM54YrS_CDvLuqvn-3" target="W5GlPM54YrS_CDvLuqvn-5" edge="1">
                    <mxGeometry relative="1" as="geometry"/>
                </mxCell>
                <mxCell id="W5GlPM54YrS_CDvLuqvn-10" style="edgeStyle=none;html=1;entryX=1;entryY=0.5;entryDx=0;entryDy=0;" parent="29" source="W5GlPM54YrS_CDvLuqvn-4" target="W5GlPM54YrS_CDvLuqvn-5" edge="1">
                    <mxGeometry relative="1" as="geometry"/>
                </mxCell>
                <mxCell id="30" style="edgeStyle=none;html=1;exitX=0;exitY=0.5;exitDx=0;exitDy=0;fontSize=18;strokeColor=#0000FF;" parent="87" source="2" edge="1">
                    <mxGeometry relative="1" as="geometry">
                        <mxPoint x="15.5" y="80" as="targetPoint"/>
                    </mxGeometry>
                </mxCell>
                <mxCell id="31" style="edgeStyle=none;html=1;exitX=0;exitY=0.5;exitDx=0;exitDy=0;entryX=0.99;entryY=0.138;entryDx=0;entryDy=0;entryPerimeter=0;fontSize=18;" parent="87" edge="1">
                    <mxGeometry relative="1" as="geometry">
                        <mxPoint x="178.5" y="171" as="sourcePoint"/>
                        <mxPoint x="11.5" y="102.95799999999997" as="targetPoint"/>
                    </mxGeometry>
                </mxCell>
                <mxCell id="32" style="edgeStyle=none;html=1;fontSize=18;entryX=0;entryY=0.25;entryDx=0;entryDy=0;fillColor=#f8cecc;strokeColor=#FF3333;" parent="87" target="2" edge="1">
                    <mxGeometry relative="1" as="geometry">
                        <mxPoint x="14.5" y="69" as="sourcePoint"/>
                        <mxPoint x="25.5" y="90" as="targetPoint"/>
                    </mxGeometry>
                </mxCell>
                <mxCell id="37" style="edgeStyle=none;html=1;fontSize=18;entryX=0;entryY=0.25;entryDx=0;entryDy=0;fillColor=#f8cecc;strokeColor=#FF3333;" parent="87" edge="1">
                    <mxGeometry relative="1" as="geometry">
                        <mxPoint x="17.5" y="95" as="sourcePoint"/>
                        <mxPoint x="178.5" y="161" as="targetPoint"/>
                    </mxGeometry>
                </mxCell>
                <mxCell id="42" value="&lt;font color=&quot;#ff33ff&quot; style=&quot;font-size: 12px;&quot;&gt;开机广告&lt;/font&gt;" style="text;strokeColor=none;align=center;fillColor=none;html=1;verticalAlign=middle;whiteSpace=wrap;rounded=0;fontSize=12;fontColor=#0000FF;" parent="87" vertex="1">
                    <mxGeometry y="80" width="137" height="30" as="geometry"/>
                </mxCell>
                <mxCell id="88" value="" style="group" parent="1" vertex="1" connectable="0">
                    <mxGeometry x="1097" y="662" width="303" height="176" as="geometry"/>
                </mxCell>
                <mxCell id="9" value="Wax 引擎" style="rounded=1;whiteSpace=wrap;html=1;flipV=1;flipH=1;" parent="88" vertex="1">
                    <mxGeometry y="56" width="100" height="40" as="geometry"/>
                </mxCell>
                <mxCell id="18" value="DSP1" style="rounded=1;whiteSpace=wrap;html=1;flipV=1;flipH=1;" parent="88" vertex="1">
                    <mxGeometry x="190" width="80" height="30" as="geometry"/>
                </mxCell>
                <mxCell id="23" value="DSP3" style="rounded=1;whiteSpace=wrap;html=1;flipV=1;flipH=1;" parent="88" vertex="1">
                    <mxGeometry x="189" y="65" width="80" height="30" as="geometry"/>
                </mxCell>
                <mxCell id="24" value="……" style="rounded=1;whiteSpace=wrap;html=1;flipV=1;flipH=1;" parent="88" vertex="1">
                    <mxGeometry x="189" y="129" width="80" height="30" as="geometry"/>
                </mxCell>
                <mxCell id="27" style="edgeStyle=none;html=1;exitX=0.1;exitY=0.5;exitDx=0;exitDy=0;exitPerimeter=0;entryX=1;entryY=0.5;entryDx=0;entryDy=0;strokeColor=#0000FF;" parent="88" source="26" target="9" edge="1">
                    <mxGeometry relative="1" as="geometry"/>
                </mxCell>
                <mxCell id="26" value="" style="shape=curlyBracket;whiteSpace=wrap;html=1;rounded=1;labelPosition=left;verticalLabelPosition=middle;align=right;verticalAlign=middle;" parent="88" vertex="1">
                    <mxGeometry x="155" y="8.5" width="31" height="135.5" as="geometry"/>
                </mxCell>
                <mxCell id="82" value="" style="shape=curlyBracket;whiteSpace=wrap;html=1;rounded=1;flipH=1;labelPosition=right;verticalLabelPosition=middle;align=left;verticalAlign=middle;fontSize=22;fontColor=#00FFFF;" parent="88" vertex="1">
                    <mxGeometry x="289" y="11" width="14" height="139" as="geometry"/>
                </mxCell>
                <mxCell id="11" value="超粉引擎" style="rounded=1;whiteSpace=wrap;html=1;flipV=1;flipH=1;" parent="88" vertex="1">
                    <mxGeometry x="2" y="136" width="100" height="40" as="geometry"/>
                </mxCell>
                <mxCell id="91" value="&lt;font color=&quot;#00ffff&quot;&gt;6&lt;/font&gt;" style="text;strokeColor=none;align=center;fillColor=none;html=1;verticalAlign=middle;whiteSpace=wrap;rounded=0;fontSize=22;fontColor=#FF33FF;" parent="1" vertex="1">
                    <mxGeometry x="793" y="698" width="60" height="30" as="geometry"/>
                </mxCell>
                <mxCell id="92" value="&lt;font color=&quot;#00ffff&quot;&gt;7&lt;/font&gt;" style="text;strokeColor=none;align=center;fillColor=none;html=1;verticalAlign=middle;whiteSpace=wrap;rounded=0;fontSize=22;fontColor=#FF33FF;" parent="1" vertex="1">
                    <mxGeometry x="826" y="698" width="60" height="30" as="geometry"/>
                </mxCell>
                <mxCell id="93" value="&lt;font color=&quot;#00ffff&quot;&gt;8&lt;/font&gt;" style="text;strokeColor=none;align=center;fillColor=none;html=1;verticalAlign=middle;whiteSpace=wrap;rounded=0;fontSize=22;fontColor=#FF33FF;" parent="1" vertex="1">
                    <mxGeometry x="795" y="476" width="60" height="30" as="geometry"/>
                </mxCell>
                <mxCell id="94" value="&lt;font color=&quot;#00ffff&quot;&gt;9&lt;/font&gt;" style="text;strokeColor=none;align=center;fillColor=none;html=1;verticalAlign=middle;whiteSpace=wrap;rounded=0;fontSize=22;fontColor=#FF33FF;" parent="1" vertex="1">
                    <mxGeometry x="832" y="476" width="60" height="30" as="geometry"/>
                </mxCell>
                <mxCell id="97" value="&lt;font color=&quot;#00ffff&quot;&gt;10&lt;/font&gt;" style="text;strokeColor=none;align=center;fillColor=none;html=1;verticalAlign=middle;whiteSpace=wrap;rounded=0;fontSize=22;fontColor=#FF33FF;" parent="1" vertex="1">
                    <mxGeometry x="709" y="546" width="60" height="30" as="geometry"/>
                </mxCell>
                <mxCell id="99" value="&lt;font color=&quot;#00ffff&quot;&gt;10&lt;/font&gt;" style="text;strokeColor=none;align=center;fillColor=none;html=1;verticalAlign=middle;whiteSpace=wrap;rounded=0;fontSize=22;fontColor=#FF33FF;" parent="1" vertex="1">
                    <mxGeometry x="655" y="668" width="60" height="30" as="geometry"/>
                </mxCell>
                <mxCell id="100" value="……" style="rounded=1;whiteSpace=wrap;html=1;flipV=1;flipH=1;" vertex="1" parent="1">
                    <mxGeometry x="1099" y="878" width="100" height="40" as="geometry"/>
                </mxCell>
                <mxCell id="101" value="平台侧" style="rounded=1;whiteSpace=wrap;html=1;flipV=1;flipH=1;" vertex="1" parent="1">
                    <mxGeometry x="642" y="464" width="100" height="40" as="geometry"/>
                </mxCell>
            </root>
        </mxGraphModel>
    </diagram>
    <diagram id="zcohm3vA99hhlxNvCXXW" name="第 2 页">
        <mxGraphModel dx="667" dy="431" grid="0" gridSize="10" guides="1" tooltips="1" connect="1" arrows="1" fold="1" page="1" pageScale="1" pageWidth="2336" pageHeight="1654" math="0" shadow="0">
            <root>
                <mxCell id="0"/>
                <mxCell id="1" parent="0"/>
            </root>
        </mxGraphModel>
    </diagram>
</mxfile>